%TF.GenerationSoftware,Altium Limited,Altium Designer,20.0.9 (164)*%
G04 Layer_Physical_Order=1*
G04 Layer_Color=255*
%FSLAX45Y45*%
%MOMM*%
%TF.FileFunction,Copper,L1,Top,Signal*%
%TF.Part,Single*%
G01*
G75*
%TA.AperFunction,SMDPad,CuDef*%
%ADD10R,0.60000X0.50000*%
%ADD11R,0.80000X2.00000*%
%ADD12O,0.80000X2.00000*%
%TA.AperFunction,Conductor*%
%ADD13C,0.30000*%
%TA.AperFunction,ComponentPad*%
%ADD14C,2.00000*%
%ADD15R,2.00000X2.00000*%
%TA.AperFunction,ViaPad*%
%ADD16C,3.00000*%
%ADD17C,1.27000*%
G36*
X15169412Y5180588D02*
X15031232D01*
X15028050Y5193288D01*
X15047694Y5203788D01*
X15074342Y5225657D01*
X15096211Y5252304D01*
X15112460Y5282706D01*
X15122469Y5315693D01*
X15125847Y5349999D01*
X15122469Y5384305D01*
X15112460Y5417293D01*
X15096211Y5447695D01*
X15074342Y5474342D01*
X15047694Y5496211D01*
X15017294Y5512461D01*
X14984306Y5522467D01*
X14950000Y5525846D01*
X14915694Y5522467D01*
X14882706Y5512461D01*
X14852306Y5496211D01*
X14825658Y5474342D01*
X14803789Y5447695D01*
X14787540Y5417293D01*
X14777531Y5384305D01*
X14774153Y5349999D01*
X14777531Y5315693D01*
X14787540Y5282706D01*
X14803789Y5252304D01*
X14825658Y5225657D01*
X14852306Y5203788D01*
X14871950Y5193288D01*
X14868768Y5180588D01*
X14531230D01*
X14528049Y5193288D01*
X14547694Y5203789D01*
X14574342Y5225658D01*
X14596211Y5252305D01*
X14612460Y5282706D01*
X14622469Y5315694D01*
X14625847Y5350000D01*
X14622469Y5384306D01*
X14612460Y5417294D01*
X14596211Y5447695D01*
X14574342Y5474342D01*
X14547694Y5496211D01*
X14517294Y5512461D01*
X14484306Y5522468D01*
X14450000Y5525847D01*
X14415694Y5522468D01*
X14382706Y5512461D01*
X14352306Y5496211D01*
X14325658Y5474342D01*
X14303789Y5447695D01*
X14287540Y5417294D01*
X14277531Y5384306D01*
X14274153Y5350000D01*
X14277531Y5315694D01*
X14287540Y5282706D01*
X14303789Y5252305D01*
X14325658Y5225658D01*
X14352306Y5203789D01*
X14371951Y5193288D01*
X14368770Y5180588D01*
X14230586D01*
X14230586Y6669413D01*
X15169412D01*
Y5180588D01*
D02*
G37*
%LPC*%
G36*
X15078999Y6525000D02*
X14828999D01*
Y6449439D01*
X14816299Y6446913D01*
X14809537Y6463241D01*
X14789436Y6489437D01*
X14763242Y6509537D01*
X14732736Y6522172D01*
X14712700Y6524810D01*
Y6400001D01*
Y6275190D01*
X14732736Y6277828D01*
X14763242Y6290463D01*
X14789436Y6310564D01*
X14809537Y6336759D01*
X14816299Y6353087D01*
X14828999Y6350561D01*
Y6275000D01*
X14909216D01*
Y6172520D01*
X14904700Y6169114D01*
X14892000Y6175443D01*
Y6230600D01*
X14762000D01*
Y6213093D01*
X14749300Y6208782D01*
X14746645Y6212244D01*
X14732982Y6222727D01*
X14717073Y6229317D01*
X14712700Y6229892D01*
Y6105600D01*
Y5981308D01*
X14717073Y5981883D01*
X14732982Y5988473D01*
X14746645Y5998956D01*
X14749300Y6002418D01*
X14762000Y5998106D01*
Y5980600D01*
X14786217D01*
Y5943001D01*
X14786217Y5943000D01*
X14789320Y5927393D01*
X14798161Y5914162D01*
X14841162Y5871161D01*
X14854393Y5862321D01*
X14870000Y5859216D01*
X14870003Y5859216D01*
X14935551D01*
X14944600Y5850400D01*
Y5812700D01*
X15000000D01*
X15055400D01*
Y5850400D01*
X15055000D01*
Y5950000D01*
X14945000D01*
Y5940783D01*
X14886894D01*
X14867784Y5959893D01*
Y5980600D01*
X14892000D01*
Y6064817D01*
X14905598D01*
X14905600Y6064816D01*
X14921208Y6067921D01*
X14934439Y6076762D01*
X14978838Y6121161D01*
X14978838Y6121161D01*
X14987679Y6134393D01*
X14990784Y6150000D01*
Y6275000D01*
X15078999D01*
Y6525000D01*
D02*
G37*
G36*
X14446001Y6526079D02*
X14413368Y6521783D01*
X14382961Y6509188D01*
X14356850Y6489151D01*
X14336813Y6463040D01*
X14324217Y6432632D01*
X14319920Y6400000D01*
X14324217Y6367369D01*
X14336813Y6336961D01*
X14356850Y6310849D01*
X14382961Y6290813D01*
X14405217Y6281594D01*
Y6154001D01*
X14405215Y6154000D01*
X14408321Y6138393D01*
X14417162Y6125161D01*
X14465561Y6076763D01*
X14465561Y6076762D01*
X14478792Y6067921D01*
X14494400Y6064817D01*
X14507439D01*
Y6045600D01*
X14509673Y6028631D01*
X14516223Y6012820D01*
X14526642Y5999241D01*
X14540221Y5988823D01*
X14556032Y5982273D01*
X14573000Y5980039D01*
X14589969Y5982273D01*
X14605780Y5988823D01*
X14619357Y5999241D01*
X14629300Y6012198D01*
X14636150Y6013197D01*
X14636378D01*
X14643240Y6012138D01*
X14653355Y5998956D01*
X14667018Y5988473D01*
X14682927Y5981883D01*
X14687300Y5981308D01*
Y6105600D01*
Y6229892D01*
X14682927Y6229317D01*
X14667018Y6222727D01*
X14653355Y6212244D01*
X14643240Y6199062D01*
X14636378Y6198003D01*
X14636150D01*
X14629300Y6199002D01*
X14619357Y6211958D01*
X14605780Y6222377D01*
X14589969Y6228927D01*
X14573000Y6231161D01*
X14556032Y6228927D01*
X14540221Y6222377D01*
X14526642Y6211958D01*
X14516223Y6198380D01*
X14509673Y6182569D01*
X14507742Y6167896D01*
X14496469Y6161208D01*
X14486784Y6170893D01*
Y6281594D01*
X14509039Y6290813D01*
X14535152Y6310849D01*
X14555188Y6336961D01*
X14566095Y6363292D01*
X14579517Y6363188D01*
X14590463Y6336759D01*
X14610564Y6310564D01*
X14636758Y6290463D01*
X14667264Y6277828D01*
X14687300Y6275190D01*
Y6400001D01*
Y6524810D01*
X14667264Y6522172D01*
X14636758Y6509537D01*
X14610564Y6489437D01*
X14590463Y6463241D01*
X14579517Y6436812D01*
X14566095Y6436708D01*
X14555188Y6463040D01*
X14535152Y6489151D01*
X14509039Y6509188D01*
X14478632Y6521783D01*
X14446001Y6526079D01*
D02*
G37*
G36*
X15055400Y5787300D02*
X15012700D01*
Y5749600D01*
X15055400D01*
Y5787300D01*
D02*
G37*
G36*
X14987300D02*
X14944600D01*
Y5749600D01*
X14987300D01*
Y5787300D01*
D02*
G37*
G36*
X14712700Y5637995D02*
Y5562700D01*
X14787994D01*
X14786612Y5573208D01*
X14777654Y5594834D01*
X14763403Y5613404D01*
X14744833Y5627654D01*
X14723209Y5636612D01*
X14712700Y5637995D01*
D02*
G37*
G36*
X14687300D02*
X14676793Y5636612D01*
X14655167Y5627654D01*
X14636597Y5613404D01*
X14622346Y5594834D01*
X14613388Y5573208D01*
X14612006Y5562700D01*
X14687300D01*
Y5637995D01*
D02*
G37*
G36*
X14787994Y5537300D02*
X14712700D01*
Y5462005D01*
X14723209Y5463388D01*
X14744833Y5472346D01*
X14763403Y5486596D01*
X14777654Y5505167D01*
X14786612Y5526793D01*
X14787994Y5537300D01*
D02*
G37*
G36*
X14687300D02*
X14612006D01*
X14613388Y5526793D01*
X14622346Y5505167D01*
X14636597Y5486596D01*
X14655167Y5472346D01*
X14676793Y5463388D01*
X14687300Y5462005D01*
Y5537300D01*
D02*
G37*
%LPD*%
D10*
X15000000Y5800000D02*
D03*
Y5900000D02*
D03*
D11*
X14827000Y6105600D02*
D03*
D12*
X14573000D02*
D03*
X14700000D02*
D03*
D13*
Y6400000D01*
X14827000Y5943000D02*
Y6105600D01*
X14870000Y5900000D02*
X15000000D01*
X14827000Y5943000D02*
X14870000Y5900000D01*
X14700000Y5840000D02*
Y6105600D01*
X14739999Y5800000D02*
X15000000D01*
X14700000Y5840000D02*
X14739999Y5800000D01*
X14446001Y6154000D02*
Y6400000D01*
X14827000Y6105600D02*
X14827000Y6105600D01*
X14905600D01*
X14950000Y6150000D02*
Y6396000D01*
X14905600Y6105600D02*
X14950000Y6150000D01*
X14573000Y6105600D02*
X14573000Y6105600D01*
X14494400Y6105600D02*
X14573000D01*
X14446001Y6154000D02*
X14494400Y6105600D01*
X14950000Y6396000D02*
X14953999Y6400000D01*
D14*
X14700000D02*
D03*
X14446001D02*
D03*
D15*
X14953999D02*
D03*
D16*
X14950000Y5349999D02*
D03*
X14450000Y5350000D02*
D03*
D17*
X14700000Y5550000D02*
D03*
%TF.MD5,47780433db5997acfd8ea377773c0a7c*%
M02*
