G04*
G04 #@! TF.GenerationSoftware,Altium Limited,Altium Designer,20.0.9 (164)*
G04*
G04 Layer_Physical_Order=1*
G04 Layer_Color=255*
%FSLAX44Y44*%
%MOMM*%
G71*
G01*
G75*
%ADD10R,0.6000X0.5000*%
%ADD11R,0.8000X2.0000*%
%ADD12O,0.8000X2.0000*%
%ADD13C,0.3000*%
%ADD14C,2.0000*%
%ADD15R,2.0000X2.0000*%
%ADD16C,3.0000*%
%ADD17C,1.2700*%
G36*
X1516941Y518059D02*
X1503123D01*
X1502805Y519329D01*
X1504769Y520379D01*
X1507434Y522566D01*
X1509621Y525230D01*
X1511246Y528271D01*
X1512247Y531569D01*
X1512585Y535000D01*
X1512247Y538430D01*
X1511246Y541729D01*
X1509621Y544770D01*
X1507434Y547434D01*
X1504769Y549621D01*
X1501729Y551246D01*
X1498431Y552247D01*
X1495000Y552585D01*
X1491569Y552247D01*
X1488271Y551246D01*
X1485231Y549621D01*
X1482566Y547434D01*
X1480379Y544770D01*
X1478754Y541729D01*
X1477753Y538430D01*
X1477415Y535000D01*
X1477753Y531569D01*
X1478754Y528271D01*
X1480379Y525230D01*
X1482566Y522566D01*
X1485231Y520379D01*
X1487195Y519329D01*
X1486877Y518059D01*
X1453123D01*
X1452805Y519329D01*
X1454769Y520379D01*
X1457434Y522566D01*
X1459621Y525230D01*
X1461246Y528271D01*
X1462247Y531569D01*
X1462585Y535000D01*
X1462247Y538431D01*
X1461246Y541729D01*
X1459621Y544770D01*
X1457434Y547434D01*
X1454769Y549621D01*
X1451729Y551246D01*
X1448431Y552247D01*
X1445000Y552585D01*
X1441569Y552247D01*
X1438271Y551246D01*
X1435231Y549621D01*
X1432566Y547434D01*
X1430379Y544770D01*
X1428754Y541729D01*
X1427753Y538431D01*
X1427415Y535000D01*
X1427753Y531569D01*
X1428754Y528271D01*
X1430379Y525230D01*
X1432566Y522566D01*
X1435231Y520379D01*
X1437195Y519329D01*
X1436877Y518059D01*
X1423059D01*
X1423059Y666941D01*
X1516941D01*
Y518059D01*
D02*
G37*
%LPC*%
G36*
X1507900Y652500D02*
X1482900D01*
Y644944D01*
X1481630Y644691D01*
X1480954Y646324D01*
X1478944Y648944D01*
X1476324Y650954D01*
X1473274Y652217D01*
X1471270Y652481D01*
Y640000D01*
Y627519D01*
X1473274Y627783D01*
X1476324Y629046D01*
X1478944Y631056D01*
X1480954Y633676D01*
X1481630Y635309D01*
X1482900Y635056D01*
Y627500D01*
X1490922D01*
Y617252D01*
X1490470Y616911D01*
X1489200Y617544D01*
Y623060D01*
X1476200D01*
Y621309D01*
X1474930Y620878D01*
X1474664Y621224D01*
X1473298Y622273D01*
X1471707Y622932D01*
X1471270Y622989D01*
Y610560D01*
Y598131D01*
X1471707Y598188D01*
X1473298Y598847D01*
X1474664Y599896D01*
X1474930Y600242D01*
X1476200Y599811D01*
Y598060D01*
X1478622D01*
Y594300D01*
X1478622Y594300D01*
X1478932Y592739D01*
X1479816Y591416D01*
X1484116Y587116D01*
X1485439Y586232D01*
X1487000Y585922D01*
X1487000Y585922D01*
X1493555D01*
X1494460Y585040D01*
Y581270D01*
X1500000D01*
X1505540D01*
Y585040D01*
X1505500D01*
Y595000D01*
X1494500D01*
Y594078D01*
X1488689D01*
X1486778Y595989D01*
Y598060D01*
X1489200D01*
Y606482D01*
X1490560D01*
X1490560Y606482D01*
X1492121Y606792D01*
X1493444Y607676D01*
X1497884Y612116D01*
X1497884Y612116D01*
X1498768Y613439D01*
X1499078Y615000D01*
Y627500D01*
X1507900D01*
Y652500D01*
D02*
G37*
G36*
X1444600Y652608D02*
X1441337Y652178D01*
X1438296Y650919D01*
X1435685Y648915D01*
X1433681Y646304D01*
X1432422Y643263D01*
X1431992Y640000D01*
X1432422Y636737D01*
X1433681Y633696D01*
X1435685Y631085D01*
X1438296Y629081D01*
X1440522Y628159D01*
Y615400D01*
X1440522Y615400D01*
X1440832Y613839D01*
X1441716Y612516D01*
X1446556Y607676D01*
X1446556Y607676D01*
X1447879Y606792D01*
X1449440Y606482D01*
X1450744D01*
Y604560D01*
X1450967Y602863D01*
X1451622Y601282D01*
X1452664Y599924D01*
X1454022Y598882D01*
X1455603Y598227D01*
X1457300Y598004D01*
X1458997Y598227D01*
X1460578Y598882D01*
X1461936Y599924D01*
X1462930Y601220D01*
X1463615Y601320D01*
X1463638D01*
X1464324Y601214D01*
X1465336Y599896D01*
X1466702Y598847D01*
X1468293Y598188D01*
X1468730Y598131D01*
Y610560D01*
Y622989D01*
X1468293Y622932D01*
X1466702Y622273D01*
X1465336Y621224D01*
X1464324Y619906D01*
X1463638Y619800D01*
X1463615D01*
X1462930Y619900D01*
X1461936Y621196D01*
X1460578Y622238D01*
X1458997Y622893D01*
X1457300Y623116D01*
X1455603Y622893D01*
X1454022Y622238D01*
X1452664Y621196D01*
X1451622Y619838D01*
X1450967Y618257D01*
X1450774Y616790D01*
X1449647Y616121D01*
X1448678Y617089D01*
Y628159D01*
X1450904Y629081D01*
X1453515Y631085D01*
X1455519Y633696D01*
X1456609Y636329D01*
X1457952Y636319D01*
X1459046Y633676D01*
X1461056Y631056D01*
X1463676Y629046D01*
X1466726Y627783D01*
X1468730Y627519D01*
Y640000D01*
Y652481D01*
X1466726Y652217D01*
X1463676Y650954D01*
X1461056Y648944D01*
X1459046Y646324D01*
X1457952Y643681D01*
X1456609Y643671D01*
X1455519Y646304D01*
X1453515Y648915D01*
X1450904Y650919D01*
X1447863Y652178D01*
X1444600Y652608D01*
D02*
G37*
G36*
X1505540Y578730D02*
X1501270D01*
Y574960D01*
X1505540D01*
Y578730D01*
D02*
G37*
G36*
X1498730D02*
X1494460D01*
Y574960D01*
X1498730D01*
Y578730D01*
D02*
G37*
G36*
X1471270Y563800D02*
Y556270D01*
X1478799D01*
X1478661Y557321D01*
X1477765Y559483D01*
X1476340Y561340D01*
X1474483Y562765D01*
X1472321Y563661D01*
X1471270Y563800D01*
D02*
G37*
G36*
X1468730D02*
X1467679Y563661D01*
X1465517Y562765D01*
X1463660Y561340D01*
X1462235Y559483D01*
X1461339Y557321D01*
X1461201Y556270D01*
X1468730D01*
Y563800D01*
D02*
G37*
G36*
X1478799Y553730D02*
X1471270D01*
Y546200D01*
X1472321Y546339D01*
X1474483Y547235D01*
X1476340Y548660D01*
X1477765Y550517D01*
X1478661Y552679D01*
X1478799Y553730D01*
D02*
G37*
G36*
X1468730D02*
X1461201D01*
X1461339Y552679D01*
X1462235Y550517D01*
X1463660Y548660D01*
X1465517Y547235D01*
X1467679Y546339D01*
X1468730Y546200D01*
Y553730D01*
D02*
G37*
%LPD*%
D10*
X1500000Y580000D02*
D03*
Y590000D02*
D03*
D11*
X1482700Y610560D02*
D03*
D12*
X1457300D02*
D03*
X1470000D02*
D03*
D13*
Y640000D01*
X1482700Y594300D02*
Y610560D01*
X1487000Y590000D02*
X1500000D01*
X1482700Y594300D02*
X1487000Y590000D01*
X1470000Y584000D02*
Y610560D01*
X1474000Y580000D02*
X1500000D01*
X1470000Y584000D02*
X1474000Y580000D01*
X1444600Y615400D02*
Y640000D01*
X1482700Y610560D02*
X1482700Y610560D01*
X1490560D01*
X1495000Y615000D02*
Y639600D01*
X1490560Y610560D02*
X1495000Y615000D01*
X1457300Y610560D02*
X1457300Y610560D01*
X1449440Y610560D02*
X1457300D01*
X1444600Y615400D02*
X1449440Y610560D01*
X1495000Y639600D02*
X1495400Y640000D01*
D14*
X1470000D02*
D03*
X1444600D02*
D03*
D15*
X1495400D02*
D03*
D16*
X1495000Y535000D02*
D03*
X1445000Y535000D02*
D03*
D17*
X1470000Y555000D02*
D03*
M02*
